<mxfile host="app.diagrams.net" agent="Mozilla/5.0 (Windows NT 10.0; Win64; x64) AppleWebKit/537.36 (KHTML, like Gecko) Chrome/126.0.0.0 Safari/537.36 Edg/126.0.0.0" version="24.7.4">
  <diagram name="第 1 页" id="jz-1aYeFlPRafe94Uzbj">
    <mxGraphModel dx="1293" dy="712" grid="1" gridSize="10" guides="1" tooltips="1" connect="1" arrows="1" fold="1" page="1" pageScale="1" pageWidth="827" pageHeight="1169" math="0" shadow="0">
      <root>
        <mxCell id="0" />
        <mxCell id="1" parent="0" />
        <mxCell id="CZP80rYjPx-OVs_tEuAL-3" value="" style="edgeStyle=orthogonalEdgeStyle;rounded=0;orthogonalLoop=1;jettySize=auto;html=1;" edge="1" parent="1" source="CZP80rYjPx-OVs_tEuAL-1" target="CZP80rYjPx-OVs_tEuAL-2">
          <mxGeometry relative="1" as="geometry" />
        </mxCell>
        <mxCell id="CZP80rYjPx-OVs_tEuAL-10" value="点击公司管理,查询统计信息,当前用户的组织信息" style="edgeLabel;html=1;align=center;verticalAlign=middle;resizable=0;points=[];" vertex="1" connectable="0" parent="CZP80rYjPx-OVs_tEuAL-3">
          <mxGeometry x="0.2876" y="-1" relative="1" as="geometry">
            <mxPoint as="offset" />
          </mxGeometry>
        </mxCell>
        <mxCell id="CZP80rYjPx-OVs_tEuAL-5" style="edgeStyle=orthogonalEdgeStyle;rounded=0;orthogonalLoop=1;jettySize=auto;html=1;exitX=0;exitY=0.25;exitDx=0;exitDy=0;entryX=1;entryY=0;entryDx=0;entryDy=0;" edge="1" parent="1" source="CZP80rYjPx-OVs_tEuAL-1" target="CZP80rYjPx-OVs_tEuAL-4">
          <mxGeometry relative="1" as="geometry" />
        </mxCell>
        <mxCell id="CZP80rYjPx-OVs_tEuAL-1" value="用户登录" style="rounded=0;whiteSpace=wrap;html=1;" vertex="1" parent="1">
          <mxGeometry x="150" y="140" width="120" height="60" as="geometry" />
        </mxCell>
        <mxCell id="CZP80rYjPx-OVs_tEuAL-8" value="" style="edgeStyle=orthogonalEdgeStyle;rounded=0;orthogonalLoop=1;jettySize=auto;html=1;" edge="1" parent="1" source="CZP80rYjPx-OVs_tEuAL-2" target="CZP80rYjPx-OVs_tEuAL-7">
          <mxGeometry relative="1" as="geometry" />
        </mxCell>
        <mxCell id="CZP80rYjPx-OVs_tEuAL-2" value="创建组织" style="whiteSpace=wrap;html=1;rounded=0;" vertex="1" parent="1">
          <mxGeometry x="150" y="230" width="120" height="60" as="geometry" />
        </mxCell>
        <mxCell id="CZP80rYjPx-OVs_tEuAL-6" style="edgeStyle=orthogonalEdgeStyle;rounded=0;orthogonalLoop=1;jettySize=auto;html=1;exitX=1;exitY=1;exitDx=0;exitDy=0;entryX=0;entryY=0.75;entryDx=0;entryDy=0;" edge="1" parent="1" source="CZP80rYjPx-OVs_tEuAL-4" target="CZP80rYjPx-OVs_tEuAL-2">
          <mxGeometry relative="1" as="geometry" />
        </mxCell>
        <mxCell id="CZP80rYjPx-OVs_tEuAL-4" value="上传发票" style="rounded=0;whiteSpace=wrap;html=1;" vertex="1" parent="1">
          <mxGeometry y="180" width="90" height="60" as="geometry" />
        </mxCell>
        <mxCell id="CZP80rYjPx-OVs_tEuAL-12" value="" style="edgeStyle=orthogonalEdgeStyle;rounded=0;orthogonalLoop=1;jettySize=auto;html=1;" edge="1" parent="1" source="CZP80rYjPx-OVs_tEuAL-7" target="CZP80rYjPx-OVs_tEuAL-11">
          <mxGeometry relative="1" as="geometry" />
        </mxCell>
        <mxCell id="CZP80rYjPx-OVs_tEuAL-7" value="编辑组织" style="whiteSpace=wrap;html=1;rounded=0;" vertex="1" parent="1">
          <mxGeometry x="150" y="330" width="120" height="60" as="geometry" />
        </mxCell>
        <mxCell id="CZP80rYjPx-OVs_tEuAL-14" value="" style="edgeStyle=orthogonalEdgeStyle;rounded=0;orthogonalLoop=1;jettySize=auto;html=1;" edge="1" parent="1" source="CZP80rYjPx-OVs_tEuAL-11" target="CZP80rYjPx-OVs_tEuAL-13">
          <mxGeometry relative="1" as="geometry" />
        </mxCell>
        <mxCell id="CZP80rYjPx-OVs_tEuAL-15" value="选择身份,是否可以查看所有发票" style="edgeLabel;html=1;align=center;verticalAlign=middle;resizable=0;points=[];" vertex="1" connectable="0" parent="CZP80rYjPx-OVs_tEuAL-14">
          <mxGeometry x="-0.227" y="1" relative="1" as="geometry">
            <mxPoint as="offset" />
          </mxGeometry>
        </mxCell>
        <mxCell id="CZP80rYjPx-OVs_tEuAL-11" value="邀请成员" style="whiteSpace=wrap;html=1;rounded=0;" vertex="1" parent="1">
          <mxGeometry x="150" y="430" width="120" height="60" as="geometry" />
        </mxCell>
        <mxCell id="CZP80rYjPx-OVs_tEuAL-17" value="" style="edgeStyle=orthogonalEdgeStyle;rounded=0;orthogonalLoop=1;jettySize=auto;html=1;" edge="1" parent="1" source="CZP80rYjPx-OVs_tEuAL-13" target="CZP80rYjPx-OVs_tEuAL-16">
          <mxGeometry relative="1" as="geometry" />
        </mxCell>
        <mxCell id="CZP80rYjPx-OVs_tEuAL-18" value="根据key查询邀请参数(clipId,viewAll...)" style="edgeLabel;html=1;align=center;verticalAlign=middle;resizable=0;points=[];" vertex="1" connectable="0" parent="CZP80rYjPx-OVs_tEuAL-17">
          <mxGeometry x="-0.0071" y="1" relative="1" as="geometry">
            <mxPoint as="offset" />
          </mxGeometry>
        </mxCell>
        <mxCell id="CZP80rYjPx-OVs_tEuAL-13" value="邀请链接" style="whiteSpace=wrap;html=1;rounded=0;rotation=0;" vertex="1" parent="1">
          <mxGeometry x="150" y="550" width="120" height="50" as="geometry" />
        </mxCell>
        <mxCell id="CZP80rYjPx-OVs_tEuAL-16" value="加入团队" style="whiteSpace=wrap;html=1;rounded=0;" vertex="1" parent="1">
          <mxGeometry x="150" y="640" width="120" height="60" as="geometry" />
        </mxCell>
        <mxCell id="CZP80rYjPx-OVs_tEuAL-19" value="删除组织(owner删除组织);&lt;div&gt;退出(成员退出)&lt;/div&gt;" style="rounded=0;whiteSpace=wrap;html=1;" vertex="1" parent="1">
          <mxGeometry x="450" y="340" width="240" height="60" as="geometry" />
        </mxCell>
        <mxCell id="CZP80rYjPx-OVs_tEuAL-24" value="" style="edgeStyle=orthogonalEdgeStyle;rounded=0;orthogonalLoop=1;jettySize=auto;html=1;" edge="1" parent="1" source="CZP80rYjPx-OVs_tEuAL-20" target="CZP80rYjPx-OVs_tEuAL-23">
          <mxGeometry relative="1" as="geometry" />
        </mxCell>
        <mxCell id="CZP80rYjPx-OVs_tEuAL-20" value="更新成员信息" style="rounded=0;whiteSpace=wrap;html=1;" vertex="1" parent="1">
          <mxGeometry x="470" y="90" width="120" height="60" as="geometry" />
        </mxCell>
        <mxCell id="CZP80rYjPx-OVs_tEuAL-21" value="在组织编辑页面删除成员,owner不能删除自己" style="rounded=0;whiteSpace=wrap;html=1;" vertex="1" parent="1">
          <mxGeometry x="470" y="460" width="150" height="60" as="geometry" />
        </mxCell>
        <mxCell id="CZP80rYjPx-OVs_tEuAL-23" value="owner修改自己的权限" style="whiteSpace=wrap;html=1;rounded=0;" vertex="1" parent="1">
          <mxGeometry x="470" y="230" width="120" height="60" as="geometry" />
        </mxCell>
      </root>
    </mxGraphModel>
  </diagram>
</mxfile>
